<?xml version="1.0" encoding="utf-8"?>
<svg version="1.1" xmlns="http://www.w3.org/2000/svg" xmlns:xlink="http://www.w3.org/1999/xlink" width="1000" height="1000" viewBox="0 0 1000 1000" enable-background="new 0 0 1000 1000" xml:space="preserve"><g transform="translate(0,0) scale(1.0,1.0)"><svg width="1000" height="1000" viewBox="0 0 660 660" enable-background="new 0 0 1000 1000" xml:space="preserve"><rect x="0" y="0" width="660" height="660" fill="rgb(255,255,255)" opacity="1.0" /><circle cx="250.0" cy="90.0" r="9.090909" fill="rgb(0,0,0)" opacity="1.0" /><rect x="250.0" y="80.90909" width="10.0" height="18.181818" fill="rgb(0,0,0)" opacity="1.0" /><circle cx="270.0" cy="90.0" r="9.090909" fill="rgb(0,0,0)" opacity="1.0" /><rect x="260.0" y="80.90909" width="10.0" height="18.181818" fill="rgb(0,0,0)" opacity="1.0" /><rect x="270.0" y="80.90909" width="10.0" height="18.181818" fill="rgb(0,0,0)" opacity="1.0" /><circle cx="290.0" cy="90.0" r="9.090909" fill="rgb(0,0,0)" opacity="1.0" /><rect x="280.0" y="80.90909" width="10.0" height="18.181818" fill="rgb(0,0,0)" opacity="1.0" /><rect x="290.0" y="80.90909" width="10.0" height="18.181818" fill="rgb(0,0,0)" opacity="1.0" /><circle cx="310.0" cy="90.0" r="9.090909" fill="rgb(0,0,0)" opacity="1.0" /><rect x="300.0" y="80.90909" width="10.0" height="18.181818" fill="rgb(0,0,0)" opacity="1.0" /><circle cx="350.0" cy="90.0" r="9.090909" fill="rgb(0,0,0)" opacity="1.0" /><circle cx="390.0" cy="90.0" r="9.090909" fill="rgb(0,0,0)" opacity="1.0" /><circle cx="270.0" cy="110.0" r="9.090909" fill="rgb(0,0,0)" opacity="1.0" /><rect x="270.0" y="100.90909" width="10.0" height="18.181818" fill="rgb(0,0,0)" opacity="1.0" /><circle cx="290.0" cy="110.0" r="9.090909" fill="rgb(0,0,0)" opacity="1.0" /><rect x="280.0" y="100.90909" width="10.0" height="18.181818" fill="rgb(0,0,0)" opacity="1.0" /><circle cx="330.0" cy="110.0" r="9.090909" fill="rgb(0,0,0)" opacity="1.0" /><rect x="330.0" y="100.90909" width="10.0" height="18.181818" fill="rgb(0,0,0)" opacity="1.0" /><circle cx="350.0" cy="110.0" r="9.090909" fill="rgb(0,0,0)" opacity="1.0" /><rect x="340.0" y="100.90909" width="10.0" height="18.181818" fill="rgb(0,0,0)" opacity="1.0" /><rect x="350.0" y="100.90909" width="10.0" height="18.181818" fill="rgb(0,0,0)" opacity="1.0" /><circle cx="370.0" cy="110.0" r="9.090909" fill="rgb(0,0,0)" opacity="1.0" /><rect x="360.0" y="100.90909" width="10.0" height="18.181818" fill="rgb(0,0,0)" opacity="1.0" /><rect x="370.0" y="100.90909" width="10.0" height="18.181818" fill="rgb(0,0,0)" opacity="1.0" /><circle cx="390.0" cy="110.0" r="9.090909" fill="rgb(0,0,0)" opacity="1.0" /><rect x="380.0" y="100.90909" width="10.0" height="18.181818" fill="rgb(0,0,0)" opacity="1.0" /><circle cx="250.0" cy="130.0" r="9.090909" fill="rgb(0,0,0)" opacity="1.0" /><circle cx="290.0" cy="130.0" r="9.090909" fill="rgb(0,0,0)" opacity="1.0" /><rect x="290.0" y="120.90909" width="10.0" height="18.181818" fill="rgb(0,0,0)" opacity="1.0" /><circle cx="310.0" cy="130.0" r="9.090909" fill="rgb(0,0,0)" opacity="1.0" /><rect x="300.0" y="120.90909" width="10.0" height="18.181818" fill="rgb(0,0,0)" opacity="1.0" /><rect x="310.0" y="120.90909" width="10.0" height="18.181818" fill="rgb(0,0,0)" opacity="1.0" /><circle cx="330.0" cy="130.0" r="9.090909" fill="rgb(0,0,0)" opacity="1.0" /><rect x="320.0" y="120.90909" width="10.0" height="18.181818" fill="rgb(0,0,0)" opacity="1.0" /><circle cx="370.0" cy="130.0" r="9.090909" fill="rgb(0,0,0)" opacity="1.0" /><circle cx="270.0" cy="150.0" r="9.090909" fill="rgb(0,0,0)" opacity="1.0" /><rect x="270.0" y="140.90909" width="10.0" height="18.181818" fill="rgb(0,0,0)" opacity="1.0" /><circle cx="290.0" cy="150.0" r="9.090909" fill="rgb(0,0,0)" opacity="1.0" /><rect x="280.0" y="140.90909" width="10.0" height="18.181818" fill="rgb(0,0,0)" opacity="1.0" /><circle cx="330.0" cy="150.0" r="9.090909" fill="rgb(0,0,0)" opacity="1.0" /><rect x="330.0" y="140.90909" width="10.0" height="18.181818" fill="rgb(0,0,0)" opacity="1.0" /><circle cx="350.0" cy="150.0" r="9.090909" fill="rgb(0,0,0)" opacity="1.0" /><rect x="340.0" y="140.90909" width="10.0" height="18.181818" fill="rgb(0,0,0)" opacity="1.0" /><rect x="350.0" y="140.90909" width="10.0" height="18.181818" fill="rgb(0,0,0)" opacity="1.0" /><circle cx="370.0" cy="150.0" r="9.090909" fill="rgb(0,0,0)" opacity="1.0" /><rect x="360.0" y="140.90909" width="10.0" height="18.181818" fill="rgb(0,0,0)" opacity="1.0" /><circle cx="410.0" cy="150.0" r="9.090909" fill="rgb(0,0,0)" opacity="1.0" /><circle cx="270.0" cy="170.0" r="9.090909" fill="rgb(0,0,0)" opacity="1.0" /><rect x="270.0" y="160.90909" width="10.0" height="18.181818" fill="rgb(0,0,0)" opacity="1.0" /><circle cx="290.0" cy="170.0" r="9.090909" fill="rgb(0,0,0)" opacity="1.0" /><rect x="280.0" y="160.90909" width="10.0" height="18.181818" fill="rgb(0,0,0)" opacity="1.0" /><rect x="290.0" y="160.90909" width="10.0" height="18.181818" fill="rgb(0,0,0)" opacity="1.0" /><circle cx="310.0" cy="170.0" r="9.090909" fill="rgb(0,0,0)" opacity="1.0" /><rect x="300.0" y="160.90909" width="10.0" height="18.181818" fill="rgb(0,0,0)" opacity="1.0" /><rect x="310.0" y="160.90909" width="10.0" height="18.181818" fill="rgb(0,0,0)" opacity="1.0" /><circle cx="330.0" cy="170.0" r="9.090909" fill="rgb(0,0,0)" opacity="1.0" /><rect x="320.0" y="160.90909" width="10.0" height="18.181818" fill="rgb(0,0,0)" opacity="1.0" /><rect x="330.0" y="160.90909" width="10.0" height="18.181818" fill="rgb(0,0,0)" opacity="1.0" /><circle cx="350.0" cy="170.0" r="9.090909" fill="rgb(0,0,0)" opacity="1.0" /><rect x="340.0" y="160.90909" width="10.0" height="18.181818" fill="rgb(0,0,0)" opacity="1.0" /><circle cx="390.0" cy="170.0" r="9.090909" fill="rgb(0,0,0)" opacity="1.0" /><circle cx="250.0" cy="190.0" r="9.090909" fill="rgb(0,0,0)" opacity="1.0" /><circle cx="310.0" cy="190.0" r="9.090909" fill="rgb(0,0,0)" opacity="1.0" /><rect x="310.0" y="180.90909" width="10.0" height="18.181818" fill="rgb(0,0,0)" opacity="1.0" /><circle cx="330.0" cy="190.0" r="9.090909" fill="rgb(0,0,0)" opacity="1.0" /><rect x="320.0" y="180.90909" width="10.0" height="18.181818" fill="rgb(0,0,0)" opacity="1.0" /><rect x="330.0" y="180.90909" width="10.0" height="18.181818" fill="rgb(0,0,0)" opacity="1.0" /><circle cx="350.0" cy="190.0" r="9.090909" fill="rgb(0,0,0)" opacity="1.0" /><rect x="340.0" y="180.90909" width="10.0" height="18.181818" fill="rgb(0,0,0)" opacity="1.0" /><rect x="350.0" y="180.90909" width="10.0" height="18.181818" fill="rgb(0,0,0)" opacity="1.0" /><circle cx="370.0" cy="190.0" r="9.090909" fill="rgb(0,0,0)" opacity="1.0" /><rect x="360.0" y="180.90909" width="10.0" height="18.181818" fill="rgb(0,0,0)" opacity="1.0" /><rect x="370.0" y="180.90909" width="10.0" height="18.181818" fill="rgb(0,0,0)" opacity="1.0" /><circle cx="390.0" cy="190.0" r="9.090909" fill="rgb(0,0,0)" opacity="1.0" /><rect x="380.0" y="180.90909" width="10.0" height="18.181818" fill="rgb(0,0,0)" opacity="1.0" /><circle cx="250.0" cy="210.0" r="9.090909" fill="rgb(0,0,0)" opacity="1.0" /><circle cx="290.0" cy="210.0" r="9.090909" fill="rgb(0,0,0)" opacity="1.0" /><circle cx="330.0" cy="210.0" r="9.090909" fill="rgb(0,0,0)" opacity="1.0" /><circle cx="370.0" cy="210.0" r="9.090909" fill="rgb(0,0,0)" opacity="1.0" /><circle cx="410.0" cy="210.0" r="9.090909" fill="rgb(0,0,0)" opacity="1.0" /><circle cx="290.0" cy="230.0" r="9.090909" fill="rgb(0,0,0)" opacity="1.0" /><circle cx="370.0" cy="230.0" r="9.090909" fill="rgb(0,0,0)" opacity="1.0" /><rect x="370.0" y="220.90909" width="10.0" height="18.181818" fill="rgb(0,0,0)" opacity="1.0" /><circle cx="390.0" cy="230.0" r="9.090909" fill="rgb(0,0,0)" opacity="1.0" /><rect x="380.0" y="220.90909" width="10.0" height="18.181818" fill="rgb(0,0,0)" opacity="1.0" /><circle cx="90.0" cy="250.0" r="9.090909" fill="rgb(0,0,0)" opacity="1.0" /><circle cx="130.0" cy="250.0" r="9.090909" fill="rgb(0,0,0)" opacity="1.0" /><circle cx="210.0" cy="250.0" r="9.090909" fill="rgb(0,0,0)" opacity="1.0" /><rect x="210.0" y="240.90909" width="10.0" height="18.181818" fill="rgb(0,0,0)" opacity="1.0" /><circle cx="230.0" cy="250.0" r="9.090909" fill="rgb(0,0,0)" opacity="1.0" /><rect x="220.0" y="240.90909" width="10.0" height="18.181818" fill="rgb(0,0,0)" opacity="1.0" /><circle cx="330.0" cy="250.0" r="9.090909" fill="rgb(0,0,0)" opacity="1.0" /><circle cx="370.0" cy="250.0" r="9.090909" fill="rgb(0,0,0)" opacity="1.0" /><rect x="370.0" y="240.90909" width="10.0" height="18.181818" fill="rgb(0,0,0)" opacity="1.0" /><circle cx="390.0" cy="250.0" r="9.090909" fill="rgb(0,0,0)" opacity="1.0" /><rect x="380.0" y="240.90909" width="10.0" height="18.181818" fill="rgb(0,0,0)" opacity="1.0" /><rect x="390.0" y="240.90909" width="10.0" height="18.181818" fill="rgb(0,0,0)" opacity="1.0" /><circle cx="410.0" cy="250.0" r="9.090909" fill="rgb(0,0,0)" opacity="1.0" /><rect x="400.0" y="240.90909" width="10.0" height="18.181818" fill="rgb(0,0,0)" opacity="1.0" /><circle cx="470.0" cy="250.0" r="9.090909" fill="rgb(0,0,0)" opacity="1.0" /><circle cx="530.0" cy="250.0" r="9.090909" fill="rgb(0,0,0)" opacity="1.0" /><circle cx="570.0" cy="250.0" r="9.090909" fill="rgb(0,0,0)" opacity="1.0" /><circle cx="90.0" cy="270.0" r="9.090909" fill="rgb(0,0,0)" opacity="1.0" /><circle cx="150.0" cy="270.0" r="9.090909" fill="rgb(0,0,0)" opacity="1.0" /><circle cx="190.0" cy="270.0" r="9.090909" fill="rgb(0,0,0)" opacity="1.0" /><circle cx="230.0" cy="270.0" r="9.090909" fill="rgb(0,0,0)" opacity="1.0" /><circle cx="290.0" cy="270.0" r="9.090909" fill="rgb(0,0,0)" opacity="1.0" /><rect x="290.0" y="260.9091" width="10.0" height="18.181818" fill="rgb(0,0,0)" opacity="1.0" /><circle cx="310.0" cy="270.0" r="9.090909" fill="rgb(0,0,0)" opacity="1.0" /><rect x="300.0" y="260.9091" width="10.0" height="18.181818" fill="rgb(0,0,0)" opacity="1.0" /><rect x="310.0" y="260.9091" width="10.0" height="18.181818" fill="rgb(0,0,0)" opacity="1.0" /><circle cx="330.0" cy="270.0" r="9.090909" fill="rgb(0,0,0)" opacity="1.0" /><rect x="320.0" y="260.9091" width="10.0" height="18.181818" fill="rgb(0,0,0)" opacity="1.0" /><circle cx="410.0" cy="270.0" r="9.090909" fill="rgb(0,0,0)" opacity="1.0" /><rect x="410.0" y="260.9091" width="10.0" height="18.181818" fill="rgb(0,0,0)" opacity="1.0" /><circle cx="430.0" cy="270.0" r="9.090909" fill="rgb(0,0,0)" opacity="1.0" /><rect x="420.0" y="260.9091" width="10.0" height="18.181818" fill="rgb(0,0,0)" opacity="1.0" /><rect x="430.0" y="260.9091" width="10.0" height="18.181818" fill="rgb(0,0,0)" opacity="1.0" /><circle cx="450.0" cy="270.0" r="9.090909" fill="rgb(0,0,0)" opacity="1.0" /><rect x="440.0" y="260.9091" width="10.0" height="18.181818" fill="rgb(0,0,0)" opacity="1.0" /><rect x="450.0" y="260.9091" width="10.0" height="18.181818" fill="rgb(0,0,0)" opacity="1.0" /><circle cx="470.0" cy="270.0" r="9.090909" fill="rgb(0,0,0)" opacity="1.0" /><rect x="460.0" y="260.9091" width="10.0" height="18.181818" fill="rgb(0,0,0)" opacity="1.0" /><rect x="470.0" y="260.9091" width="10.0" height="18.181818" fill="rgb(0,0,0)" opacity="1.0" /><circle cx="490.0" cy="270.0" r="9.090909" fill="rgb(0,0,0)" opacity="1.0" /><rect x="480.0" y="260.9091" width="10.0" height="18.181818" fill="rgb(0,0,0)" opacity="1.0" /><rect x="490.0" y="260.9091" width="10.0" height="18.181818" fill="rgb(0,0,0)" opacity="1.0" /><circle cx="510.0" cy="270.0" r="9.090909" fill="rgb(0,0,0)" opacity="1.0" /><rect x="500.0" y="260.9091" width="10.0" height="18.181818" fill="rgb(0,0,0)" opacity="1.0" /><circle cx="90.0" cy="290.0" r="9.090909" fill="rgb(0,0,0)" opacity="1.0" /><rect x="90.0" y="280.9091" width="10.0" height="18.181818" fill="rgb(0,0,0)" opacity="1.0" /><circle cx="110.0" cy="290.0" r="9.090909" fill="rgb(0,0,0)" opacity="1.0" /><rect x="100.0" y="280.9091" width="10.0" height="18.181818" fill="rgb(0,0,0)" opacity="1.0" /><rect x="110.0" y="280.9091" width="10.0" height="18.181818" fill="rgb(0,0,0)" opacity="1.0" /><circle cx="130.0" cy="290.0" r="9.090909" fill="rgb(0,0,0)" opacity="1.0" /><rect x="120.0" y="280.9091" width="10.0" height="18.181818" fill="rgb(0,0,0)" opacity="1.0" /><circle cx="170.0" cy="290.0" r="9.090909" fill="rgb(0,0,0)" opacity="1.0" /><circle cx="210.0" cy="290.0" r="9.090909" fill="rgb(0,0,0)" opacity="1.0" /><rect x="210.0" y="280.9091" width="10.0" height="18.181818" fill="rgb(0,0,0)" opacity="1.0" /><circle cx="230.0" cy="290.0" r="9.090909" fill="rgb(0,0,0)" opacity="1.0" /><rect x="220.0" y="280.9091" width="10.0" height="18.181818" fill="rgb(0,0,0)" opacity="1.0" /><rect x="230.0" y="280.9091" width="10.0" height="18.181818" fill="rgb(0,0,0)" opacity="1.0" /><circle cx="250.0" cy="290.0" r="9.090909" fill="rgb(0,0,0)" opacity="1.0" /><rect x="240.0" y="280.9091" width="10.0" height="18.181818" fill="rgb(0,0,0)" opacity="1.0" /><circle cx="290.0" cy="290.0" r="9.090909" fill="rgb(0,0,0)" opacity="1.0" /><rect x="290.0" y="280.9091" width="10.0" height="18.181818" fill="rgb(0,0,0)" opacity="1.0" /><circle cx="310.0" cy="290.0" r="9.090909" fill="rgb(0,0,0)" opacity="1.0" /><rect x="300.0" y="280.9091" width="10.0" height="18.181818" fill="rgb(0,0,0)" opacity="1.0" /><rect x="310.0" y="280.9091" width="10.0" height="18.181818" fill="rgb(0,0,0)" opacity="1.0" /><circle cx="330.0" cy="290.0" r="9.090909" fill="rgb(0,0,0)" opacity="1.0" /><rect x="320.0" y="280.9091" width="10.0" height="18.181818" fill="rgb(0,0,0)" opacity="1.0" /><circle cx="390.0" cy="290.0" r="9.090909" fill="rgb(0,0,0)" opacity="1.0" /><rect x="390.0" y="280.9091" width="10.0" height="18.181818" fill="rgb(0,0,0)" opacity="1.0" /><circle cx="410.0" cy="290.0" r="9.090909" fill="rgb(0,0,0)" opacity="1.0" /><rect x="400.0" y="280.9091" width="10.0" height="18.181818" fill="rgb(0,0,0)" opacity="1.0" /><circle cx="450.0" cy="290.0" r="9.090909" fill="rgb(0,0,0)" opacity="1.0" /><rect x="450.0" y="280.9091" width="10.0" height="18.181818" fill="rgb(0,0,0)" opacity="1.0" /><circle cx="470.0" cy="290.0" r="9.090909" fill="rgb(0,0,0)" opacity="1.0" /><rect x="460.0" y="280.9091" width="10.0" height="18.181818" fill="rgb(0,0,0)" opacity="1.0" /><circle cx="550.0" cy="290.0" r="9.090909" fill="rgb(0,0,0)" opacity="1.0" /><circle cx="110.0" cy="310.0" r="9.090909" fill="rgb(0,0,0)" opacity="1.0" /><rect x="110.0" y="300.9091" width="10.0" height="18.181818" fill="rgb(0,0,0)" opacity="1.0" /><circle cx="130.0" cy="310.0" r="9.090909" fill="rgb(0,0,0)" opacity="1.0" /><rect x="120.0" y="300.9091" width="10.0" height="18.181818" fill="rgb(0,0,0)" opacity="1.0" /><rect x="130.0" y="300.9091" width="10.0" height="18.181818" fill="rgb(0,0,0)" opacity="1.0" /><circle cx="150.0" cy="310.0" r="9.090909" fill="rgb(0,0,0)" opacity="1.0" /><rect x="140.0" y="300.9091" width="10.0" height="18.181818" fill="rgb(0,0,0)" opacity="1.0" /><circle cx="250.0" cy="310.0" r="9.090909" fill="rgb(0,0,0)" opacity="1.0" /><circle cx="290.0" cy="310.0" r="9.090909" fill="rgb(0,0,0)" opacity="1.0" /><rect x="290.0" y="300.9091" width="10.0" height="18.181818" fill="rgb(0,0,0)" opacity="1.0" /><circle cx="310.0" cy="310.0" r="9.090909" fill="rgb(0,0,0)" opacity="1.0" /><rect x="300.0" y="300.9091" width="10.0" height="18.181818" fill="rgb(0,0,0)" opacity="1.0" /><circle cx="390.0" cy="310.0" r="9.090909" fill="rgb(0,0,0)" opacity="1.0" /><rect x="390.0" y="300.9091" width="10.0" height="18.181818" fill="rgb(0,0,0)" opacity="1.0" /><circle cx="410.0" cy="310.0" r="9.090909" fill="rgb(0,0,0)" opacity="1.0" /><rect x="400.0" y="300.9091" width="10.0" height="18.181818" fill="rgb(0,0,0)" opacity="1.0" /><circle cx="450.0" cy="310.0" r="9.090909" fill="rgb(0,0,0)" opacity="1.0" /><circle cx="510.0" cy="310.0" r="9.090909" fill="rgb(0,0,0)" opacity="1.0" /><circle cx="570.0" cy="310.0" r="9.090909" fill="rgb(0,0,0)" opacity="1.0" /><circle cx="90.0" cy="330.0" r="9.090909" fill="rgb(0,0,0)" opacity="1.0" /><rect x="90.0" y="320.9091" width="10.0" height="18.181818" fill="rgb(0,0,0)" opacity="1.0" /><circle cx="110.0" cy="330.0" r="9.090909" fill="rgb(0,0,0)" opacity="1.0" /><rect x="100.0" y="320.9091" width="10.0" height="18.181818" fill="rgb(0,0,0)" opacity="1.0" /><rect x="110.0" y="320.9091" width="10.0" height="18.181818" fill="rgb(0,0,0)" opacity="1.0" /><circle cx="130.0" cy="330.0" r="9.090909" fill="rgb(0,0,0)" opacity="1.0" /><rect x="120.0" y="320.9091" width="10.0" height="18.181818" fill="rgb(0,0,0)" opacity="1.0" /><rect x="130.0" y="320.9091" width="10.0" height="18.181818" fill="rgb(0,0,0)" opacity="1.0" /><circle cx="150.0" cy="330.0" r="9.090909" fill="rgb(0,0,0)" opacity="1.0" /><rect x="140.0" y="320.9091" width="10.0" height="18.181818" fill="rgb(0,0,0)" opacity="1.0" /><circle cx="190.0" cy="330.0" r="9.090909" fill="rgb(0,0,0)" opacity="1.0" /><rect x="190.0" y="320.9091" width="10.0" height="18.181818" fill="rgb(0,0,0)" opacity="1.0" /><circle cx="210.0" cy="330.0" r="9.090909" fill="rgb(0,0,0)" opacity="1.0" /><rect x="200.0" y="320.9091" width="10.0" height="18.181818" fill="rgb(0,0,0)" opacity="1.0" /><rect x="210.0" y="320.9091" width="10.0" height="18.181818" fill="rgb(0,0,0)" opacity="1.0" /><circle cx="230.0" cy="330.0" r="9.090909" fill="rgb(0,0,0)" opacity="1.0" /><rect x="220.0" y="320.9091" width="10.0" height="18.181818" fill="rgb(0,0,0)" opacity="1.0" /><circle cx="270.0" cy="330.0" r="9.090909" fill="rgb(0,0,0)" opacity="1.0" /><rect x="270.0" y="320.9091" width="10.0" height="18.181818" fill="rgb(0,0,0)" opacity="1.0" /><circle cx="290.0" cy="330.0" r="9.090909" fill="rgb(0,0,0)" opacity="1.0" /><rect x="280.0" y="320.9091" width="10.0" height="18.181818" fill="rgb(0,0,0)" opacity="1.0" /><rect x="290.0" y="320.9091" width="10.0" height="18.181818" fill="rgb(0,0,0)" opacity="1.0" /><circle cx="310.0" cy="330.0" r="9.090909" fill="rgb(0,0,0)" opacity="1.0" /><rect x="300.0" y="320.9091" width="10.0" height="18.181818" fill="rgb(0,0,0)" opacity="1.0" /><circle cx="350.0" cy="330.0" r="9.090909" fill="rgb(0,0,0)" opacity="1.0" /><circle cx="390.0" cy="330.0" r="9.090909" fill="rgb(0,0,0)" opacity="1.0" /><circle cx="510.0" cy="330.0" r="9.090909" fill="rgb(0,0,0)" opacity="1.0" /><rect x="510.0" y="320.9091" width="10.0" height="18.181818" fill="rgb(0,0,0)" opacity="1.0" /><circle cx="530.0" cy="330.0" r="9.090909" fill="rgb(0,0,0)" opacity="1.0" /><rect x="520.0" y="320.9091" width="10.0" height="18.181818" fill="rgb(0,0,0)" opacity="1.0" /><circle cx="570.0" cy="330.0" r="9.090909" fill="rgb(0,0,0)" opacity="1.0" /><circle cx="130.0" cy="350.0" r="9.090909" fill="rgb(0,0,0)" opacity="1.0" /><circle cx="230.0" cy="350.0" r="9.090909" fill="rgb(0,0,0)" opacity="1.0" /><rect x="230.0" y="340.9091" width="10.0" height="18.181818" fill="rgb(0,0,0)" opacity="1.0" /><circle cx="250.0" cy="350.0" r="9.090909" fill="rgb(0,0,0)" opacity="1.0" /><rect x="240.0" y="340.9091" width="10.0" height="18.181818" fill="rgb(0,0,0)" opacity="1.0" /><rect x="250.0" y="340.9091" width="10.0" height="18.181818" fill="rgb(0,0,0)" opacity="1.0" /><circle cx="270.0" cy="350.0" r="9.090909" fill="rgb(0,0,0)" opacity="1.0" /><rect x="260.0" y="340.9091" width="10.0" height="18.181818" fill="rgb(0,0,0)" opacity="1.0" /><circle cx="370.0" cy="350.0" r="9.090909" fill="rgb(0,0,0)" opacity="1.0" /><rect x="370.0" y="340.9091" width="10.0" height="18.181818" fill="rgb(0,0,0)" opacity="1.0" /><circle cx="390.0" cy="350.0" r="9.090909" fill="rgb(0,0,0)" opacity="1.0" /><rect x="380.0" y="340.9091" width="10.0" height="18.181818" fill="rgb(0,0,0)" opacity="1.0" /><rect x="390.0" y="340.9091" width="10.0" height="18.181818" fill="rgb(0,0,0)" opacity="1.0" /><circle cx="410.0" cy="350.0" r="9.090909" fill="rgb(0,0,0)" opacity="1.0" /><rect x="400.0" y="340.9091" width="10.0" height="18.181818" fill="rgb(0,0,0)" opacity="1.0" /><rect x="410.0" y="340.9091" width="10.0" height="18.181818" fill="rgb(0,0,0)" opacity="1.0" /><circle cx="430.0" cy="350.0" r="9.090909" fill="rgb(0,0,0)" opacity="1.0" /><rect x="420.0" y="340.9091" width="10.0" height="18.181818" fill="rgb(0,0,0)" opacity="1.0" /><circle cx="470.0" cy="350.0" r="9.090909" fill="rgb(0,0,0)" opacity="1.0" /><rect x="470.0" y="340.9091" width="10.0" height="18.181818" fill="rgb(0,0,0)" opacity="1.0" /><circle cx="490.0" cy="350.0" r="9.090909" fill="rgb(0,0,0)" opacity="1.0" /><rect x="480.0" y="340.9091" width="10.0" height="18.181818" fill="rgb(0,0,0)" opacity="1.0" /><rect x="490.0" y="340.9091" width="10.0" height="18.181818" fill="rgb(0,0,0)" opacity="1.0" /><circle cx="510.0" cy="350.0" r="9.090909" fill="rgb(0,0,0)" opacity="1.0" /><rect x="500.0" y="340.9091" width="10.0" height="18.181818" fill="rgb(0,0,0)" opacity="1.0" /><circle cx="570.0" cy="350.0" r="9.090909" fill="rgb(0,0,0)" opacity="1.0" /><circle cx="90.0" cy="370.0" r="9.090909" fill="rgb(0,0,0)" opacity="1.0" /><rect x="90.0" y="360.9091" width="10.0" height="18.181818" fill="rgb(0,0,0)" opacity="1.0" /><circle cx="110.0" cy="370.0" r="9.090909" fill="rgb(0,0,0)" opacity="1.0" /><rect x="100.0" y="360.9091" width="10.0" height="18.181818" fill="rgb(0,0,0)" opacity="1.0" /><rect x="110.0" y="360.9091" width="10.0" height="18.181818" fill="rgb(0,0,0)" opacity="1.0" /><circle cx="130.0" cy="370.0" r="9.090909" fill="rgb(0,0,0)" opacity="1.0" /><rect x="120.0" y="360.9091" width="10.0" height="18.181818" fill="rgb(0,0,0)" opacity="1.0" /><circle cx="170.0" cy="370.0" r="9.090909" fill="rgb(0,0,0)" opacity="1.0" /><rect x="170.0" y="360.9091" width="10.0" height="18.181818" fill="rgb(0,0,0)" opacity="1.0" /><circle cx="190.0" cy="370.0" r="9.090909" fill="rgb(0,0,0)" opacity="1.0" /><rect x="180.0" y="360.9091" width="10.0" height="18.181818" fill="rgb(0,0,0)" opacity="1.0" /><rect x="190.0" y="360.9091" width="10.0" height="18.181818" fill="rgb(0,0,0)" opacity="1.0" /><circle cx="210.0" cy="370.0" r="9.090909" fill="rgb(0,0,0)" opacity="1.0" /><rect x="200.0" y="360.9091" width="10.0" height="18.181818" fill="rgb(0,0,0)" opacity="1.0" /><rect x="210.0" y="360.9091" width="10.0" height="18.181818" fill="rgb(0,0,0)" opacity="1.0" /><circle cx="230.0" cy="370.0" r="9.090909" fill="rgb(0,0,0)" opacity="1.0" /><rect x="220.0" y="360.9091" width="10.0" height="18.181818" fill="rgb(0,0,0)" opacity="1.0" /><circle cx="290.0" cy="370.0" r="9.090909" fill="rgb(0,0,0)" opacity="1.0" /><rect x="290.0" y="360.9091" width="10.0" height="18.181818" fill="rgb(0,0,0)" opacity="1.0" /><circle cx="310.0" cy="370.0" r="9.090909" fill="rgb(0,0,0)" opacity="1.0" /><rect x="300.0" y="360.9091" width="10.0" height="18.181818" fill="rgb(0,0,0)" opacity="1.0" /><circle cx="370.0" cy="370.0" r="9.090909" fill="rgb(0,0,0)" opacity="1.0" /><circle cx="410.0" cy="370.0" r="9.090909" fill="rgb(0,0,0)" opacity="1.0" /><circle cx="450.0" cy="370.0" r="9.090909" fill="rgb(0,0,0)" opacity="1.0" /><rect x="450.0" y="360.9091" width="10.0" height="18.181818" fill="rgb(0,0,0)" opacity="1.0" /><circle cx="470.0" cy="370.0" r="9.090909" fill="rgb(0,0,0)" opacity="1.0" /><rect x="460.0" y="360.9091" width="10.0" height="18.181818" fill="rgb(0,0,0)" opacity="1.0" /><circle cx="570.0" cy="370.0" r="9.090909" fill="rgb(0,0,0)" opacity="1.0" /><circle cx="150.0" cy="390.0" r="9.090909" fill="rgb(0,0,0)" opacity="1.0" /><circle cx="250.0" cy="390.0" r="9.090909" fill="rgb(0,0,0)" opacity="1.0" /><rect x="250.0" y="380.9091" width="10.0" height="18.181818" fill="rgb(0,0,0)" opacity="1.0" /><circle cx="270.0" cy="390.0" r="9.090909" fill="rgb(0,0,0)" opacity="1.0" /><rect x="260.0" y="380.9091" width="10.0" height="18.181818" fill="rgb(0,0,0)" opacity="1.0" /><rect x="270.0" y="380.9091" width="10.0" height="18.181818" fill="rgb(0,0,0)" opacity="1.0" /><circle cx="290.0" cy="390.0" r="9.090909" fill="rgb(0,0,0)" opacity="1.0" /><rect x="280.0" y="380.9091" width="10.0" height="18.181818" fill="rgb(0,0,0)" opacity="1.0" /><circle cx="350.0" cy="390.0" r="9.090909" fill="rgb(0,0,0)" opacity="1.0" /><circle cx="390.0" cy="390.0" r="9.090909" fill="rgb(0,0,0)" opacity="1.0" /><rect x="390.0" y="380.9091" width="10.0" height="18.181818" fill="rgb(0,0,0)" opacity="1.0" /><circle cx="410.0" cy="390.0" r="9.090909" fill="rgb(0,0,0)" opacity="1.0" /><rect x="400.0" y="380.9091" width="10.0" height="18.181818" fill="rgb(0,0,0)" opacity="1.0" /><rect x="410.0" y="380.9091" width="10.0" height="18.181818" fill="rgb(0,0,0)" opacity="1.0" /><circle cx="430.0" cy="390.0" r="9.090909" fill="rgb(0,0,0)" opacity="1.0" /><rect x="420.0" y="380.9091" width="10.0" height="18.181818" fill="rgb(0,0,0)" opacity="1.0" /><rect x="430.0" y="380.9091" width="10.0" height="18.181818" fill="rgb(0,0,0)" opacity="1.0" /><circle cx="450.0" cy="390.0" r="9.090909" fill="rgb(0,0,0)" opacity="1.0" /><rect x="440.0" y="380.9091" width="10.0" height="18.181818" fill="rgb(0,0,0)" opacity="1.0" /><circle cx="510.0" cy="390.0" r="9.090909" fill="rgb(0,0,0)" opacity="1.0" /><circle cx="550.0" cy="390.0" r="9.090909" fill="rgb(0,0,0)" opacity="1.0" /><circle cx="90.0" cy="410.0" r="9.090909" fill="rgb(0,0,0)" opacity="1.0" /><rect x="90.0" y="400.9091" width="10.0" height="18.181818" fill="rgb(0,0,0)" opacity="1.0" /><circle cx="110.0" cy="410.0" r="9.090909" fill="rgb(0,0,0)" opacity="1.0" /><rect x="100.0" y="400.9091" width="10.0" height="18.181818" fill="rgb(0,0,0)" opacity="1.0" /><circle cx="170.0" cy="410.0" r="9.090909" fill="rgb(0,0,0)" opacity="1.0" /><circle cx="210.0" cy="410.0" r="9.090909" fill="rgb(0,0,0)" opacity="1.0" /><circle cx="270.0" cy="410.0" r="9.090909" fill="rgb(0,0,0)" opacity="1.0" /><circle cx="310.0" cy="410.0" r="9.090909" fill="rgb(0,0,0)" opacity="1.0" /><rect x="310.0" y="400.9091" width="10.0" height="18.181818" fill="rgb(0,0,0)" opacity="1.0" /><circle cx="330.0" cy="410.0" r="9.090909" fill="rgb(0,0,0)" opacity="1.0" /><rect x="320.0" y="400.9091" width="10.0" height="18.181818" fill="rgb(0,0,0)" opacity="1.0" /><circle cx="390.0" cy="410.0" r="9.090909" fill="rgb(0,0,0)" opacity="1.0" /><rect x="390.0" y="400.9091" width="10.0" height="18.181818" fill="rgb(0,0,0)" opacity="1.0" /><circle cx="410.0" cy="410.0" r="9.090909" fill="rgb(0,0,0)" opacity="1.0" /><rect x="400.0" y="400.9091" width="10.0" height="18.181818" fill="rgb(0,0,0)" opacity="1.0" /><rect x="410.0" y="400.9091" width="10.0" height="18.181818" fill="rgb(0,0,0)" opacity="1.0" /><circle cx="430.0" cy="410.0" r="9.090909" fill="rgb(0,0,0)" opacity="1.0" /><rect x="420.0" y="400.9091" width="10.0" height="18.181818" fill="rgb(0,0,0)" opacity="1.0" /><rect x="430.0" y="400.9091" width="10.0" height="18.181818" fill="rgb(0,0,0)" opacity="1.0" /><circle cx="450.0" cy="410.0" r="9.090909" fill="rgb(0,0,0)" opacity="1.0" /><rect x="440.0" y="400.9091" width="10.0" height="18.181818" fill="rgb(0,0,0)" opacity="1.0" /><rect x="450.0" y="400.9091" width="10.0" height="18.181818" fill="rgb(0,0,0)" opacity="1.0" /><circle cx="470.0" cy="410.0" r="9.090909" fill="rgb(0,0,0)" opacity="1.0" /><rect x="460.0" y="400.9091" width="10.0" height="18.181818" fill="rgb(0,0,0)" opacity="1.0" /><rect x="470.0" y="400.9091" width="10.0" height="18.181818" fill="rgb(0,0,0)" opacity="1.0" /><circle cx="490.0" cy="410.0" r="9.090909" fill="rgb(0,0,0)" opacity="1.0" /><rect x="480.0" y="400.9091" width="10.0" height="18.181818" fill="rgb(0,0,0)" opacity="1.0" /><rect x="490.0" y="400.9091" width="10.0" height="18.181818" fill="rgb(0,0,0)" opacity="1.0" /><circle cx="510.0" cy="410.0" r="9.090909" fill="rgb(0,0,0)" opacity="1.0" /><rect x="500.0" y="400.9091" width="10.0" height="18.181818" fill="rgb(0,0,0)" opacity="1.0" /><rect x="510.0" y="400.9091" width="10.0" height="18.181818" fill="rgb(0,0,0)" opacity="1.0" /><circle cx="530.0" cy="410.0" r="9.090909" fill="rgb(0,0,0)" opacity="1.0" /><rect x="520.0" y="400.9091" width="10.0" height="18.181818" fill="rgb(0,0,0)" opacity="1.0" /><rect x="530.0" y="400.9091" width="10.0" height="18.181818" fill="rgb(0,0,0)" opacity="1.0" /><circle cx="550.0" cy="410.0" r="9.090909" fill="rgb(0,0,0)" opacity="1.0" /><rect x="540.0" y="400.9091" width="10.0" height="18.181818" fill="rgb(0,0,0)" opacity="1.0" /><rect x="550.0" y="400.9091" width="10.0" height="18.181818" fill="rgb(0,0,0)" opacity="1.0" /><circle cx="570.0" cy="410.0" r="9.090909" fill="rgb(0,0,0)" opacity="1.0" /><rect x="560.0" y="400.9091" width="10.0" height="18.181818" fill="rgb(0,0,0)" opacity="1.0" /><circle cx="250.0" cy="430.0" r="9.090909" fill="rgb(0,0,0)" opacity="1.0" /><circle cx="330.0" cy="430.0" r="9.090909" fill="rgb(0,0,0)" opacity="1.0" /><circle cx="390.0" cy="430.0" r="9.090909" fill="rgb(0,0,0)" opacity="1.0" /><rect x="390.0" y="420.9091" width="10.0" height="18.181818" fill="rgb(0,0,0)" opacity="1.0" /><circle cx="410.0" cy="430.0" r="9.090909" fill="rgb(0,0,0)" opacity="1.0" /><rect x="400.0" y="420.9091" width="10.0" height="18.181818" fill="rgb(0,0,0)" opacity="1.0" /><circle cx="490.0" cy="430.0" r="9.090909" fill="rgb(0,0,0)" opacity="1.0" /><rect x="490.0" y="420.9091" width="10.0" height="18.181818" fill="rgb(0,0,0)" opacity="1.0" /><circle cx="510.0" cy="430.0" r="9.090909" fill="rgb(0,0,0)" opacity="1.0" /><rect x="500.0" y="420.9091" width="10.0" height="18.181818" fill="rgb(0,0,0)" opacity="1.0" /><circle cx="250.0" cy="450.0" r="9.090909" fill="rgb(0,0,0)" opacity="1.0" /><rect x="250.0" y="440.9091" width="10.0" height="18.181818" fill="rgb(0,0,0)" opacity="1.0" /><circle cx="270.0" cy="450.0" r="9.090909" fill="rgb(0,0,0)" opacity="1.0" /><rect x="260.0" y="440.9091" width="10.0" height="18.181818" fill="rgb(0,0,0)" opacity="1.0" /><circle cx="330.0" cy="450.0" r="9.090909" fill="rgb(0,0,0)" opacity="1.0" /><circle cx="390.0" cy="450.0" r="9.090909" fill="rgb(0,0,0)" opacity="1.0" /><rect x="390.0" y="440.9091" width="10.0" height="18.181818" fill="rgb(0,0,0)" opacity="1.0" /><circle cx="410.0" cy="450.0" r="9.090909" fill="rgb(0,0,0)" opacity="1.0" /><rect x="400.0" y="440.9091" width="10.0" height="18.181818" fill="rgb(0,0,0)" opacity="1.0" /><circle cx="450.0" cy="450.0" r="9.090909" fill="rgb(0,0,0)" opacity="1.0" /><circle cx="490.0" cy="450.0" r="9.090909" fill="rgb(0,0,0)" opacity="1.0" /><circle cx="570.0" cy="450.0" r="9.090909" fill="rgb(0,0,0)" opacity="1.0" /><circle cx="270.0" cy="470.0" r="9.090909" fill="rgb(0,0,0)" opacity="1.0" /><circle cx="310.0" cy="470.0" r="9.090909" fill="rgb(0,0,0)" opacity="1.0" /><rect x="310.0" y="460.9091" width="10.0" height="18.181818" fill="rgb(0,0,0)" opacity="1.0" /><circle cx="330.0" cy="470.0" r="9.090909" fill="rgb(0,0,0)" opacity="1.0" /><rect x="320.0" y="460.9091" width="10.0" height="18.181818" fill="rgb(0,0,0)" opacity="1.0" /><circle cx="390.0" cy="470.0" r="9.090909" fill="rgb(0,0,0)" opacity="1.0" /><rect x="390.0" y="460.9091" width="10.0" height="18.181818" fill="rgb(0,0,0)" opacity="1.0" /><circle cx="410.0" cy="470.0" r="9.090909" fill="rgb(0,0,0)" opacity="1.0" /><rect x="400.0" y="460.9091" width="10.0" height="18.181818" fill="rgb(0,0,0)" opacity="1.0" /><circle cx="490.0" cy="470.0" r="9.090909" fill="rgb(0,0,0)" opacity="1.0" /><circle cx="570.0" cy="470.0" r="9.090909" fill="rgb(0,0,0)" opacity="1.0" /><circle cx="270.0" cy="490.0" r="9.090909" fill="rgb(0,0,0)" opacity="1.0" /><circle cx="330.0" cy="490.0" r="9.090909" fill="rgb(0,0,0)" opacity="1.0" /><circle cx="370.0" cy="490.0" r="9.090909" fill="rgb(0,0,0)" opacity="1.0" /><circle cx="410.0" cy="490.0" r="9.090909" fill="rgb(0,0,0)" opacity="1.0" /><rect x="410.0" y="480.9091" width="10.0" height="18.181818" fill="rgb(0,0,0)" opacity="1.0" /><circle cx="430.0" cy="490.0" r="9.090909" fill="rgb(0,0,0)" opacity="1.0" /><rect x="420.0" y="480.9091" width="10.0" height="18.181818" fill="rgb(0,0,0)" opacity="1.0" /><rect x="430.0" y="480.9091" width="10.0" height="18.181818" fill="rgb(0,0,0)" opacity="1.0" /><circle cx="450.0" cy="490.0" r="9.090909" fill="rgb(0,0,0)" opacity="1.0" /><rect x="440.0" y="480.9091" width="10.0" height="18.181818" fill="rgb(0,0,0)" opacity="1.0" /><rect x="450.0" y="480.9091" width="10.0" height="18.181818" fill="rgb(0,0,0)" opacity="1.0" /><circle cx="470.0" cy="490.0" r="9.090909" fill="rgb(0,0,0)" opacity="1.0" /><rect x="460.0" y="480.9091" width="10.0" height="18.181818" fill="rgb(0,0,0)" opacity="1.0" /><rect x="470.0" y="480.9091" width="10.0" height="18.181818" fill="rgb(0,0,0)" opacity="1.0" /><circle cx="490.0" cy="490.0" r="9.090909" fill="rgb(0,0,0)" opacity="1.0" /><rect x="480.0" y="480.9091" width="10.0" height="18.181818" fill="rgb(0,0,0)" opacity="1.0" /><rect x="490.0" y="480.9091" width="10.0" height="18.181818" fill="rgb(0,0,0)" opacity="1.0" /><circle cx="510.0" cy="490.0" r="9.090909" fill="rgb(0,0,0)" opacity="1.0" /><rect x="500.0" y="480.9091" width="10.0" height="18.181818" fill="rgb(0,0,0)" opacity="1.0" /><rect x="510.0" y="480.9091" width="10.0" height="18.181818" fill="rgb(0,0,0)" opacity="1.0" /><circle cx="530.0" cy="490.0" r="9.090909" fill="rgb(0,0,0)" opacity="1.0" /><rect x="520.0" y="480.9091" width="10.0" height="18.181818" fill="rgb(0,0,0)" opacity="1.0" /><rect x="530.0" y="480.9091" width="10.0" height="18.181818" fill="rgb(0,0,0)" opacity="1.0" /><circle cx="550.0" cy="490.0" r="9.090909" fill="rgb(0,0,0)" opacity="1.0" /><rect x="540.0" y="480.9091" width="10.0" height="18.181818" fill="rgb(0,0,0)" opacity="1.0" /><circle cx="270.0" cy="510.0" r="9.090909" fill="rgb(0,0,0)" opacity="1.0" /><circle cx="370.0" cy="510.0" r="9.090909" fill="rgb(0,0,0)" opacity="1.0" /><circle cx="410.0" cy="510.0" r="9.090909" fill="rgb(0,0,0)" opacity="1.0" /><rect x="410.0" y="500.9091" width="10.0" height="18.181818" fill="rgb(0,0,0)" opacity="1.0" /><circle cx="430.0" cy="510.0" r="9.090909" fill="rgb(0,0,0)" opacity="1.0" /><rect x="420.0" y="500.9091" width="10.0" height="18.181818" fill="rgb(0,0,0)" opacity="1.0" /><circle cx="490.0" cy="510.0" r="9.090909" fill="rgb(0,0,0)" opacity="1.0" /><rect x="490.0" y="500.9091" width="10.0" height="18.181818" fill="rgb(0,0,0)" opacity="1.0" /><circle cx="510.0" cy="510.0" r="9.090909" fill="rgb(0,0,0)" opacity="1.0" /><rect x="500.0" y="500.9091" width="10.0" height="18.181818" fill="rgb(0,0,0)" opacity="1.0" /><circle cx="550.0" cy="510.0" r="9.090909" fill="rgb(0,0,0)" opacity="1.0" /><circle cx="250.0" cy="530.0" r="9.090909" fill="rgb(0,0,0)" opacity="1.0" /><rect x="250.0" y="520.9091" width="10.0" height="18.181818" fill="rgb(0,0,0)" opacity="1.0" /><circle cx="270.0" cy="530.0" r="9.090909" fill="rgb(0,0,0)" opacity="1.0" /><rect x="260.0" y="520.9091" width="10.0" height="18.181818" fill="rgb(0,0,0)" opacity="1.0" /><circle cx="310.0" cy="530.0" r="9.090909" fill="rgb(0,0,0)" opacity="1.0" /><rect x="310.0" y="520.9091" width="10.0" height="18.181818" fill="rgb(0,0,0)" opacity="1.0" /><circle cx="330.0" cy="530.0" r="9.090909" fill="rgb(0,0,0)" opacity="1.0" /><rect x="320.0" y="520.9091" width="10.0" height="18.181818" fill="rgb(0,0,0)" opacity="1.0" /><circle cx="390.0" cy="530.0" r="9.090909" fill="rgb(0,0,0)" opacity="1.0" /><rect x="390.0" y="520.9091" width="10.0" height="18.181818" fill="rgb(0,0,0)" opacity="1.0" /><circle cx="410.0" cy="530.0" r="9.090909" fill="rgb(0,0,0)" opacity="1.0" /><rect x="400.0" y="520.9091" width="10.0" height="18.181818" fill="rgb(0,0,0)" opacity="1.0" /><circle cx="450.0" cy="530.0" r="9.090909" fill="rgb(0,0,0)" opacity="1.0" /><rect x="450.0" y="520.9091" width="10.0" height="18.181818" fill="rgb(0,0,0)" opacity="1.0" /><circle cx="470.0" cy="530.0" r="9.090909" fill="rgb(0,0,0)" opacity="1.0" /><rect x="460.0" y="520.9091" width="10.0" height="18.181818" fill="rgb(0,0,0)" opacity="1.0" /><circle cx="550.0" cy="530.0" r="9.090909" fill="rgb(0,0,0)" opacity="1.0" /><rect x="550.0" y="520.9091" width="10.0" height="18.181818" fill="rgb(0,0,0)" opacity="1.0" /><circle cx="570.0" cy="530.0" r="9.090909" fill="rgb(0,0,0)" opacity="1.0" /><rect x="560.0" y="520.9091" width="10.0" height="18.181818" fill="rgb(0,0,0)" opacity="1.0" /><circle cx="290.0" cy="550.0" r="9.090909" fill="rgb(0,0,0)" opacity="1.0" /><circle cx="350.0" cy="550.0" r="9.090909" fill="rgb(0,0,0)" opacity="1.0" /><rect x="350.0" y="540.9091" width="10.0" height="18.181818" fill="rgb(0,0,0)" opacity="1.0" /><circle cx="370.0" cy="550.0" r="9.090909" fill="rgb(0,0,0)" opacity="1.0" /><rect x="360.0" y="540.9091" width="10.0" height="18.181818" fill="rgb(0,0,0)" opacity="1.0" /><circle cx="410.0" cy="550.0" r="9.090909" fill="rgb(0,0,0)" opacity="1.0" /><rect x="410.0" y="540.9091" width="10.0" height="18.181818" fill="rgb(0,0,0)" opacity="1.0" /><circle cx="430.0" cy="550.0" r="9.090909" fill="rgb(0,0,0)" opacity="1.0" /><rect x="420.0" y="540.9091" width="10.0" height="18.181818" fill="rgb(0,0,0)" opacity="1.0" /><circle cx="470.0" cy="550.0" r="9.090909" fill="rgb(0,0,0)" opacity="1.0" /><rect x="470.0" y="540.9091" width="10.0" height="18.181818" fill="rgb(0,0,0)" opacity="1.0" /><circle cx="490.0" cy="550.0" r="9.090909" fill="rgb(0,0,0)" opacity="1.0" /><rect x="480.0" y="540.9091" width="10.0" height="18.181818" fill="rgb(0,0,0)" opacity="1.0" /><circle cx="550.0" cy="550.0" r="9.090909" fill="rgb(0,0,0)" opacity="1.0" /><rect x="550.0" y="540.9091" width="10.0" height="18.181818" fill="rgb(0,0,0)" opacity="1.0" /><circle cx="570.0" cy="550.0" r="9.090909" fill="rgb(0,0,0)" opacity="1.0" /><rect x="560.0" y="540.9091" width="10.0" height="18.181818" fill="rgb(0,0,0)" opacity="1.0" /><circle cx="250.0" cy="570.0" r="9.090909" fill="rgb(0,0,0)" opacity="1.0" /><circle cx="290.0" cy="570.0" r="9.090909" fill="rgb(0,0,0)" opacity="1.0" /><rect x="290.0" y="560.9091" width="10.0" height="18.181818" fill="rgb(0,0,0)" opacity="1.0" /><circle cx="310.0" cy="570.0" r="9.090909" fill="rgb(0,0,0)" opacity="1.0" /><rect x="300.0" y="560.9091" width="10.0" height="18.181818" fill="rgb(0,0,0)" opacity="1.0" /><rect x="310.0" y="560.9091" width="10.0" height="18.181818" fill="rgb(0,0,0)" opacity="1.0" /><circle cx="330.0" cy="570.0" r="9.090909" fill="rgb(0,0,0)" opacity="1.0" /><rect x="320.0" y="560.9091" width="10.0" height="18.181818" fill="rgb(0,0,0)" opacity="1.0" /><circle cx="370.0" cy="570.0" r="9.090909" fill="rgb(0,0,0)" opacity="1.0" /><rect x="370.0" y="560.9091" width="10.0" height="18.181818" fill="rgb(0,0,0)" opacity="1.0" /><circle cx="390.0" cy="570.0" r="9.090909" fill="rgb(0,0,0)" opacity="1.0" /><rect x="380.0" y="560.9091" width="10.0" height="18.181818" fill="rgb(0,0,0)" opacity="1.0" /><circle cx="470.0" cy="570.0" r="9.090909" fill="rgb(0,0,0)" opacity="1.0" /><rect x="470.0" y="560.9091" width="10.0" height="18.181818" fill="rgb(0,0,0)" opacity="1.0" /><circle cx="490.0" cy="570.0" r="9.090909" fill="rgb(0,0,0)" opacity="1.0" /><rect x="480.0" y="560.9091" width="10.0" height="18.181818" fill="rgb(0,0,0)" opacity="1.0" /><circle cx="570.0" cy="570.0" r="9.090909" fill="rgb(0,0,0)" opacity="1.0" /><path d="M150.0,80.0 A70.0,70.0 0 1,0 150.0,220.0 A70.0,70.0 0 1,0 150.0,80.0 M150.0,100.0 A50.0,50.0 0 1,1 150.0,200.0 A50.0,50.0 0 1,1 150.0,100.0 Z" fill-rule="evenodd" fill="rgb(0,0,0)" opacity="1.0" shape-rendering="crispEdges" /><path d="M510.0,80.0 A70.0,70.0 0 1,0 510.0,220.0 A70.0,70.0 0 1,0 510.0,80.0 M510.0,100.0 A50.0,50.0 0 1,1 510.0,200.0 A50.0,50.0 0 1,1 510.0,100.0 Z" fill-rule="evenodd" fill="rgb(0,0,0)" opacity="1.0" shape-rendering="crispEdges" /><rect x="120" y="120" width="60" height="60" fill="rgb(0,0,0)" opacity="1.0" shape-rendering="crispEdges" /><rect x="480" y="120" width="60" height="60" fill="rgb(0,0,0)" opacity="1.0" shape-rendering="crispEdges" /><path d="M150.0,440.0 A70.0,70.0 0 1,0 150.0,580.0 A70.0,70.0 0 1,0 150.0,440.0 M150.0,460.0 A50.0,50.0 0 1,1 150.0,560.0 A50.0,50.0 0 1,1 150.0,460.0 Z" fill-rule="evenodd" fill="rgb(0,0,0)" opacity="1.0" shape-rendering="crispEdges" /><rect x="120" y="480" width="60" height="60" fill="rgb(0,0,0)" opacity="1.0" shape-rendering="crispEdges" /></svg></g></svg>